<?xml version="1.0" encoding="UTF-8" standalone="no"?>
<!-- Created with Inkscape (http://www.inkscape.org/) -->

<svg
   xmlns:dc="http://purl.org/dc/elements/1.1/"
   xmlns:cc="http://creativecommons.org/ns#"
   xmlns:rdf="http://www.w3.org/1999/02/22-rdf-syntax-ns#"
   xmlns:svg="http://www.w3.org/2000/svg"
   xmlns="http://www.w3.org/2000/svg"
   xmlns:sodipodi="http://sodipodi.sourceforge.net/DTD/sodipodi-0.dtd"
   xmlns:inkscape="http://www.inkscape.org/namespaces/inkscape"
   width="400"
   height="825"
   viewBox="0 0 400 825.00002"
   id="svg2"
   version="1.1"
   inkscape:version="0.91 r13725"
   sodipodi:docname="female-human_body.svg">
  <defs
     id="defs4" />
  <sodipodi:namedview
     id="base"
     pagecolor="#ffffff"
     bordercolor="#666666"
     borderopacity="1.0"
     inkscape:pageopacity="0.0"
     inkscape:pageshadow="2"
     inkscape:zoom="0.76"
     inkscape:cx="201.57598"
     inkscape:cy="408.06806"
     inkscape:document-units="px"
     inkscape:current-layer="layer10"
     showgrid="true"
     units="px"
     inkscape:window-width="946"
     inkscape:window-height="829"
     inkscape:window-x="340"
     inkscape:window-y="0"
     inkscape:window-maximized="0"
     inkscape:showpageshadow="false"
     borderlayer="true"
     inkscape:snap-global="true"
     inkscape:snap-bbox="true"
     inkscape:bbox-nodes="false"
     inkscape:snap-nodes="true"
     inkscape:object-nodes="false">
    <inkscape:grid
       type="xygrid"
       id="grid3341"
       spacingx="25"
       spacingy="25.000001"
       empspacing="1"
       dotted="true" />
  </sodipodi:namedview>
  <metadata
     id="metadata7">
    <rdf:RDF>
      <cc:Work
         rdf:about="">
        <dc:format>image/svg+xml</dc:format>
        <dc:type
           rdf:resource="http://purl.org/dc/dcmitype/StillImage" />
        <dc:title />
      </cc:Work>
    </rdf:RDF>
  </metadata>
  <g
     inkscape:groupmode="layer"
     id="layer11"
     inkscape:label="Outline">
    <path
       style="fill:#323232;fill-opacity:1;fill-rule:evenodd;stroke:none;stroke-width:1px;stroke-linecap:butt;stroke-linejoin:miter;stroke-opacity:1"
       d="M 150 25 L 150 50 L 175 50 L 200 50 L 225 50 L 250 50 L 250 25 L 225 25 L 200 25 L 175 25 L 150 25 z M 250 50 L 250 75 L 275 75 L 300 75 L 300 50 L 275 50 L 250 50 z M 300 75 L 300 100 L 325 100 L 325 75 L 300 75 z M 325 100 L 325 125 L 325 150 L 325 175 L 325 200 L 350 200 L 350 225 L 350 250 L 350 275 L 350 300 L 375 300 L 375 275 L 375 250 L 375 225 L 375 200 L 375 175 L 350 175 L 350 150 L 350 125 L 350 100 L 325 100 z M 350 300 L 325 300 L 300 300 L 300 325 L 325 325 L 350 325 L 350 300 z M 300 325 L 275 325 L 275 350 L 300 350 L 300 325 z M 275 350 L 250 350 L 225 350 L 225 375 L 250 375 L 275 375 L 275 350 z M 275 375 L 275 400 L 275 425 L 300 425 L 300 400 L 300 375 L 275 375 z M 300 425 L 300 450 L 300 475 L 300 500 L 325 500 L 325 475 L 325 450 L 325 425 L 300 425 z M 325 500 L 325 525 L 325 550 L 325 575 L 325 600 L 350 600 L 350 575 L 350 550 L 350 525 L 350 500 L 325 500 z M 325 600 L 300 600 L 300 625 L 325 625 L 325 600 z M 300 600 L 300 575 L 300 550 L 300 525 L 275 525 L 275 550 L 275 575 L 250 575 L 250 600 L 250 625 L 250 650 L 250 675 L 250 700 L 250 725 L 250 750 L 275 750 L 275 725 L 275 700 L 275 675 L 275 650 L 275 625 L 275 600 L 300 600 z M 275 750 L 275 775 L 250 775 L 225 775 L 225 800 L 250 800 L 275 800 L 300 800 L 300 775 L 300 750 L 275 750 z M 225 775 L 225 750 L 225 725 L 225 700 L 225 675 L 225 650 L 225 625 L 225 600 L 225 575 L 200 575 L 175 575 L 175 600 L 175 625 L 175 650 L 175 675 L 175 700 L 175 725 L 175 750 L 175 775 L 200 775 L 225 775 z M 175 775 L 150 775 L 125 775 L 125 750 L 100 750 L 100 775 L 100 800 L 125 800 L 150 800 L 175 800 L 175 775 z M 125 750 L 150 750 L 150 725 L 150 700 L 150 675 L 150 650 L 150 625 L 150 600 L 150 575 L 125 575 L 125 550 L 125 525 L 100 525 L 100 550 L 100 575 L 100 600 L 125 600 L 125 625 L 125 650 L 125 675 L 125 700 L 125 725 L 125 750 z M 100 600 L 75 600 L 75 625 L 100 625 L 100 600 z M 75 600 L 75 575 L 75 550 L 75 525 L 75 500 L 50 500 L 50 525 L 50 550 L 50 575 L 50 600 L 75 600 z M 75 500 L 100 500 L 100 475 L 100 450 L 100 425 L 75 425 L 75 450 L 75 475 L 75 500 z M 100 425 L 125 425 L 125 400 L 125 375 L 100 375 L 100 400 L 100 425 z M 125 375 L 150 375 L 175 375 L 175 350 L 150 350 L 125 350 L 125 375 z M 125 350 L 125 325 L 100 325 L 100 350 L 125 350 z M 100 325 L 100 300 L 75 300 L 50 300 L 50 325 L 75 325 L 100 325 z M 50 300 L 50 275 L 50 250 L 50 225 L 50 200 L 75 200 L 75 175 L 75 150 L 75 125 L 75 100 L 50 100 L 50 125 L 50 150 L 50 175 L 25 175 L 25 200 L 25 225 L 25 250 L 25 275 L 25 300 L 50 300 z M 75 100 L 100 100 L 100 75 L 75 75 L 75 100 z M 100 75 L 125 75 L 150 75 L 150 50 L 125 50 L 100 50 L 100 75 z M 125 525 L 150 525 L 150 500 L 175 500 L 175 475 L 150 475 L 150 450 L 125 450 L 125 475 L 125 500 L 125 525 z M 275 525 L 275 500 L 275 475 L 275 450 L 250 450 L 250 475 L 225 475 L 225 500 L 250 500 L 250 525 L 275 525 z "
       id="rect4145-7-0-06-13-1-0" />
  </g>
  <g
     inkscape:groupmode="layer"
     id="layer12"
     inkscape:label="Skin">
    <path class="skin" data-custom-color="skin" fill="#fcddae"
       style="fill-opacity:1;fill-rule:evenodd;stroke:none;stroke-width:1px;stroke-linecap:butt;stroke-linejoin:miter;stroke-opacity:1"
       d="M 150 50 L 150 75 L 125 75 L 100 75 L 100 100 L 75 100 L 75 125 L 75 150 L 75 175 L 75 200 L 50 200 L 50 225 L 50 250 L 50 275 L 50 300 L 75 300 L 100 300 L 100 325 L 125 325 L 125 350 L 150 350 L 175 350 L 175 375 L 150 375 L 125 375 L 125 400 L 125 425 L 100 425 L 100 450 L 100 475 L 100 500 L 75 500 L 75 525 L 75 550 L 75 575 L 75 600 L 100 600 L 100 575 L 100 550 L 100 525 L 125 525 L 125 500 L 125 475 L 125 450 L 150 450 L 150 475 L 175 475 L 175 500 L 150 500 L 150 525 L 125 525 L 125 550 L 125 575 L 150 575 L 150 600 L 150 625 L 150 650 L 150 675 L 150 700 L 150 725 L 150 750 L 125 750 L 125 775 L 150 775 L 175 775 L 175 750 L 175 725 L 175 700 L 175 675 L 175 650 L 175 625 L 175 600 L 175 575 L 200 575 L 225 575 L 225 600 L 225 625 L 225 650 L 225 675 L 225 700 L 225 725 L 225 750 L 225 775 L 250 775 L 275 775 L 275 750 L 250 750 L 250 725 L 250 700 L 250 675 L 250 650 L 250 625 L 250 600 L 250 575 L 275 575 L 275 550 L 275 525 L 250 525 L 250 500 L 225 500 L 225 475 L 250 475 L 250 450 L 275 450 L 275 475 L 275 500 L 275 525 L 300 525 L 300 550 L 300 575 L 300 600 L 325 600 L 325 575 L 325 550 L 325 525 L 325 500 L 300 500 L 300 475 L 300 450 L 300 425 L 275 425 L 275 400 L 275 375 L 250 375 L 225 375 L 225 350 L 250 350 L 275 350 L 275 325 L 300 325 L 300 300 L 325 300 L 350 300 L 350 275 L 350 250 L 350 225 L 350 200 L 325 200 L 325 175 L 325 150 L 325 125 L 325 100 L 300 100 L 300 75 L 275 75 L 250 75 L 250 50 L 225 50 L 200 50 L 175 50 L 150 50 z "
       id="rect4145-7-0-06-13-1-52" />
  </g>
  <g
     inkscape:groupmode="layer"
     id="layer1"
     inkscape:label="Shirt">
    <path
       style="fill:#e85656;fill-opacity:1;fill-rule:evenodd;stroke:none;stroke-width:1px;stroke-linecap:butt;stroke-linejoin:miter;stroke-opacity:1"
       d="M 150 375 L 150 400 L 150 425 L 150 450 L 150 475 L 175 475 L 200 475 L 225 475 L 250 475 L 250 450 L 250 425 L 250 400 L 250 375 L 225 375 L 225 400 L 200 400 L 175 400 L 175 375 L 150 375 z "
       id="rect4145-7-0-06-13-1-820" />
  </g>
  <g
     inkscape:groupmode="layer"
     id="layer2"
     inkscape:label="Pants">
    <path
       style="fill:#ed7878;fill-opacity:1;fill-rule:evenodd;stroke:none;stroke-width:1px;stroke-linecap:butt;stroke-linejoin:miter;stroke-opacity:1"
       d="M 125 525 L 125 550 L 125 575 L 150 575 L 175 575 L 200 575 L 225 575 L 250 575 L 275 575 L 275 550 L 275 525 L 250 525 L 225 525 L 200 525 L 175 525 L 150 525 L 125 525 z "
       id="rect4145-7-0-06-13-1-335" />
  </g>
  <g
     inkscape:groupmode="layer"
     id="layer14"
     inkscape:label="Mouth">
    <path
       style="fill:#f689c3;fill-opacity:1;fill-rule:evenodd;stroke:none;stroke-width:1px;stroke-linecap:butt;stroke-linejoin:miter;stroke-opacity:1"
       d="M 175 300 L 175 325 L 200 325 L 225 325 L 225 300 L 200 300 L 175 300 z "
       id="rect4145-7-0-06-13-1-303" />
  </g>
  <g
     inkscape:groupmode="layer"
     id="layer13"
     inkscape:label="Eyes">
    <path class="eyes" data-custom-color="eyes" fill="#569afc"
       style="fill-opacity:1;fill-rule:evenodd;stroke:none;stroke-width:1px;stroke-linecap:butt;stroke-linejoin:miter;stroke-opacity:1"
       d="M 125 225 L 125 250 L 125 275 L 150 275 L 150 250 L 150 225 L 125 225 z M 250 225 L 250 250 L 250 275 L 275 275 L 275 250 L 275 225 L 250 225 z "
       id="rect4145-7-0-06-13-1-303-4" />
  </g>
  <g
     inkscape:groupmode="layer"
     id="layer3"
     inkscape:label="Shadow1">
    <path
       style="fill:#9b5595;fill-opacity:0.19607843;fill-rule:evenodd;stroke:none;stroke-width:1px;stroke-linecap:butt;stroke-linejoin:miter;stroke-opacity:1"
       d="M 75 125 L 75 150 L 75 175 L 75 200 L 100 200 L 100 175 L 100 150 L 100 125 L 75 125 z M 300 125 L 300 150 L 300 175 L 300 200 L 325 200 L 325 175 L 325 150 L 325 125 L 300 125 z M 50 275 L 50 300 L 75 300 L 100 300 L 100 275 L 75 275 L 50 275 z M 300 275 L 300 300 L 325 300 L 350 300 L 350 275 L 325 275 L 300 275 z M 125 325 L 125 350 L 150 350 L 175 350 L 175 375 L 200 375 L 225 375 L 225 350 L 250 350 L 275 350 L 275 325 L 250 325 L 225 325 L 200 325 L 175 325 L 150 325 L 125 325 z M 225 375 L 225 400 L 250 400 L 250 425 L 275 425 L 275 400 L 275 375 L 250 375 L 225 375 z M 175 375 L 150 375 L 125 375 L 125 400 L 125 425 L 150 425 L 150 400 L 175 400 L 175 375 z M 150 450 L 150 475 L 175 475 L 200 475 L 225 475 L 250 475 L 250 450 L 225 450 L 200 450 L 175 450 L 150 450 z M 100 500 L 100 525 L 125 525 L 125 500 L 100 500 z M 275 500 L 275 525 L 300 525 L 300 500 L 275 500 z M 125 550 L 125 575 L 150 575 L 150 600 L 150 625 L 175 625 L 175 600 L 175 575 L 200 575 L 225 575 L 225 600 L 225 625 L 250 625 L 250 600 L 250 575 L 275 575 L 275 550 L 250 550 L 225 550 L 200 550 L 175 550 L 150 550 L 125 550 z M 150 750 L 150 775 L 175 775 L 175 750 L 150 750 z M 225 750 L 225 775 L 250 775 L 250 750 L 225 750 z "
       id="rect4145-7-0-06-13-1-7-99-84" />
  </g>
  <g
     inkscape:groupmode="layer"
     id="layer5"
     inkscape:label="Shadow2">
    <path
       style="fill:#9b5595;fill-opacity:0.19607843;fill-rule:evenodd;stroke:none;stroke-width:1px;stroke-linecap:butt;stroke-linejoin:miter;stroke-opacity:1"
       d="M 75 175 L 75 200 L 100 200 L 100 175 L 75 175 z M 300 175 L 300 200 L 325 200 L 325 175 L 300 175 z M 75 275 L 75 300 L 100 300 L 100 275 L 75 275 z M 300 275 L 300 300 L 325 300 L 325 275 L 300 275 z M 125 325 L 125 350 L 150 350 L 150 325 L 125 325 z M 250 325 L 250 350 L 275 350 L 275 325 L 250 325 z M 175 350 L 175 375 L 200 375 L 225 375 L 225 350 L 200 350 L 175 350 z M 125 375 L 125 400 L 150 400 L 150 375 L 125 375 z M 250 375 L 250 400 L 275 400 L 275 375 L 250 375 z M 150 450 L 150 475 L 175 475 L 175 450 L 150 450 z M 225 450 L 225 475 L 250 475 L 250 450 L 225 450 z M 175 550 L 175 575 L 200 575 L 225 575 L 225 550 L 200 550 L 175 550 z M 225 575 L 225 600 L 250 600 L 250 575 L 225 575 z M 175 575 L 150 575 L 150 600 L 175 600 L 175 575 z "
       id="rect4145-7-0-06-13-1-7-99-84-617" />
  </g>
  <g
     inkscape:groupmode="layer"
     id="layer6"
     inkscape:label="Hair1">
    <path class="hair hair1" data-custom-color="hair1" fill="blue" 
       style="fill-opacity:1;fill-rule:evenodd;stroke:none;stroke-width:1px;stroke-linecap:butt;stroke-linejoin:miter;stroke-opacity:1"
       d="m 100,25 0,25 -25,0 0,25 -25,0 0,25 -25,0 0,25 0,25 -25,0 0,25 0,25 0,25 0,25 0,25 0,25 25,0 0,-25 0,-25 25,0 25,0 25,0 0,-25 0,-25 25,0 0,-25 25,0 0,-25 25,0 0,25 25,0 25,0 0,25 25,0 25,0 25,0 0,25 0,25 25,0 0,-25 25,0 0,-25 25,0 0,25 0,25 0,25 0,25 -25,0 0,25 -25,0 -25,0 0,25 -25,0 0,25 25,0 25,0 25,0 0,-25 25,0 0,-25 25,0 0,-25 0,-25 0,-25 0,-25 0,-25 0,-25 0,-25 0,-25 -25,0 0,-25 -25,0 0,-25 -25,0 0,-25 -25,0 0,-25 -25,0 -25,0 -25,0 -25,0 -25,0 -25,0 -25,0 -25,0 z m -75,275 0,25 0,25 25,0 0,25 25,0 25,0 25,0 0,-25 -25,0 0,-25 -25,0 -25,0 0,-25 -25,0 z"
       id="rect4145-7-0-06-13-1-09"
       inkscape:connector-curvature="0" />
  </g>
  <g
     inkscape:groupmode="layer"
     id="layer8"
     inkscape:label="Hair1_Shadow">
    <path class="hair hair1 shadow"
       style="fill:#452643;fill-opacity:0.19607843;fill-rule:evenodd;stroke:none;stroke-width:1px;stroke-linecap:butt;stroke-linejoin:miter;stroke-opacity:1"
       d="m 150,100 0,25 -25,0 0,25 0,25 -25,0 0,25 -25,0 0,25 -25,0 -25,0 0,25 25,0 25,0 0,25 25,0 0,-25 25,0 0,-25 0,-25 25,0 0,-25 25,0 0,25 25,0 25,0 25,0 0,25 25,0 25,0 0,25 0,25 25,0 0,-25 25,0 0,-25 0,-25 -25,0 -25,0 0,-25 -25,0 -25,0 -25,0 0,-25 -25,0 0,-25 -25,0 0,-25 -25,0 z m 200,100 25,0 0,-25 0,-25 -25,0 0,25 0,25 z m 0,-50 0,-25 -25,0 0,25 25,0 z m -25,-25 0,-25 -25,0 -25,0 0,25 25,0 25,0 z m -250,200 0,25 0,25 25,0 25,0 0,-25 -25,0 0,-25 -25,0 z m 225,0 0,25 -25,0 0,25 25,0 25,0 0,-25 0,-25 -25,0 z"
       id="rect4145-7-0-06-13-1-7-99-9"
       inkscape:connector-curvature="0" />
  </g>
  <g
     inkscape:groupmode="layer"
     id="layer9"
     inkscape:label="Hair2">
    <path class="hair hair2" data-custom-color="hair2" fill="blue" 
       style="fill-opacity:1;fill-rule:evenodd;stroke:none;stroke-width:1px;stroke-linecap:butt;stroke-linejoin:miter;stroke-opacity:1"
       d="M 150 25 L 150 50 L 125 50 L 100 50 L 100 75 L 75 75 L 75 100 L 50 100 L 50 125 L 50 150 L 25 150 L 25 175 L 25 200 L 0 200 L 0 225 L 0 250 L 0 275 L 0 300 L 0 325 L 25 325 L 25 350 L 50 350 L 75 350 L 100 350 L 100 325 L 75 325 L 50 325 L 50 300 L 50 275 L 50 250 L 75 250 L 75 275 L 100 275 L 100 250 L 100 225 L 125 225 L 150 225 L 175 225 L 200 225 L 225 225 L 250 225 L 275 225 L 300 225 L 300 250 L 300 275 L 325 275 L 325 250 L 350 250 L 350 275 L 350 300 L 350 325 L 325 325 L 300 325 L 300 350 L 325 350 L 350 350 L 375 350 L 375 325 L 400 325 L 400 300 L 400 275 L 400 250 L 400 225 L 400 200 L 375 200 L 375 175 L 350 175 L 350 150 L 350 125 L 350 100 L 325 100 L 325 75 L 300 75 L 300 50 L 275 50 L 250 50 L 250 25 L 225 25 L 200 25 L 175 25 L 150 25 z "
       id="rect4145-7-0-06-13-1-4" />
  </g>
  <g
     inkscape:groupmode="layer"
     id="layer10"
     inkscape:label="Hair2_Shadow">
    <path class="hair hair2 shadow"
       style="fill:#562f53;fill-opacity:0.39215687;fill-rule:evenodd;stroke:none;stroke-width:1px;stroke-linecap:butt;stroke-linejoin:miter;stroke-opacity:1"
       d="M 125 125 L 125 150 L 150 150 L 150 125 L 125 125 z M 125 150 L 100 150 L 100 175 L 100 200 L 75 200 L 75 225 L 100 225 L 125 225 L 150 225 L 175 225 L 200 225 L 225 225 L 250 225 L 275 225 L 300 225 L 325 225 L 325 200 L 300 200 L 300 175 L 300 150 L 275 150 L 275 175 L 275 200 L 250 200 L 225 200 L 200 200 L 175 200 L 150 200 L 125 200 L 125 175 L 125 150 z M 275 150 L 275 125 L 250 125 L 250 150 L 275 150 z M 325 225 L 325 250 L 350 250 L 350 275 L 350 300 L 350 325 L 325 325 L 300 325 L 300 350 L 325 350 L 350 350 L 375 350 L 375 325 L 375 300 L 375 275 L 375 250 L 375 225 L 350 225 L 325 225 z M 75 225 L 50 225 L 25 225 L 25 250 L 25 275 L 25 300 L 25 325 L 25 350 L 50 350 L 75 350 L 100 350 L 100 325 L 75 325 L 50 325 L 50 300 L 50 275 L 50 250 L 75 250 L 75 225 z "
       id="rect4145-7-0-06-13-1-7-9" />
  </g>
</svg>
